<mxfile host="app.diagrams.net" modified="2023-04-08T14:29:01.701Z" agent="5.0 (Windows NT 10.0; Win64; x64) AppleWebKit/537.36 (KHTML, like Gecko) Chrome/111.0.0.0 Safari/537.36" etag="EjkKU5-XifwnItJVUKFx" version="20.2.5" type="github">
  <diagram id="W0BPK4cTkW4dwpDVpFNX" name="Pagina-1">
    <mxGraphModel dx="1511" dy="721" grid="1" gridSize="10" guides="1" tooltips="1" connect="1" arrows="1" fold="1" page="1" pageScale="1" pageWidth="1169" pageHeight="827" math="0" shadow="0">
      <root>
        <mxCell id="0" />
        <mxCell id="1" parent="0" />
        <mxCell id="aSolj1gr-32Z-omolXvE-9" style="edgeStyle=orthogonalEdgeStyle;rounded=0;orthogonalLoop=1;jettySize=auto;html=1;exitX=0.987;exitY=0.872;exitDx=0;exitDy=0;exitPerimeter=0;entryX=0.5;entryY=1;entryDx=0;entryDy=0;" edge="1" parent="1" source="aSolj1gr-32Z-omolXvE-2" target="aSolj1gr-32Z-omolXvE-7">
          <mxGeometry relative="1" as="geometry">
            <Array as="points">
              <mxPoint x="418" y="413" />
              <mxPoint x="270" y="413" />
            </Array>
          </mxGeometry>
        </mxCell>
        <mxCell id="aSolj1gr-32Z-omolXvE-34" value="0...N" style="edgeLabel;html=1;align=center;verticalAlign=middle;resizable=0;points=[];" vertex="1" connectable="0" parent="aSolj1gr-32Z-omolXvE-9">
          <mxGeometry x="-0.1541" relative="1" as="geometry">
            <mxPoint x="-4" y="-10" as="offset" />
          </mxGeometry>
        </mxCell>
        <mxCell id="aSolj1gr-32Z-omolXvE-28" style="edgeStyle=orthogonalEdgeStyle;rounded=0;orthogonalLoop=1;jettySize=auto;html=1;entryX=0.5;entryY=1;entryDx=0;entryDy=0;" edge="1" parent="1" source="aSolj1gr-32Z-omolXvE-2" target="aSolj1gr-32Z-omolXvE-27">
          <mxGeometry relative="1" as="geometry">
            <Array as="points">
              <mxPoint x="460" y="373" />
              <mxPoint x="460" y="413" />
              <mxPoint x="700" y="413" />
            </Array>
          </mxGeometry>
        </mxCell>
        <mxCell id="aSolj1gr-32Z-omolXvE-35" value="0...N" style="edgeLabel;html=1;align=center;verticalAlign=middle;resizable=0;points=[];" vertex="1" connectable="0" parent="aSolj1gr-32Z-omolXvE-28">
          <mxGeometry x="-0.0785" y="1" relative="1" as="geometry">
            <mxPoint y="-9" as="offset" />
          </mxGeometry>
        </mxCell>
        <mxCell id="aSolj1gr-32Z-omolXvE-2" value="" style="html=1;points=[];perimeter=orthogonalPerimeter;fillColor=#000000;rotation=90;shadow=1;" vertex="1" parent="1">
          <mxGeometry x="435" y="343" width="10" height="60" as="geometry" />
        </mxCell>
        <mxCell id="aSolj1gr-32Z-omolXvE-36" value="" style="edgeStyle=orthogonalEdgeStyle;rounded=0;orthogonalLoop=1;jettySize=auto;html=1;" edge="1" parent="1" source="aSolj1gr-32Z-omolXvE-4" target="aSolj1gr-32Z-omolXvE-2">
          <mxGeometry relative="1" as="geometry" />
        </mxCell>
        <mxCell id="aSolj1gr-32Z-omolXvE-4" value="" style="ellipse;whiteSpace=wrap;html=1;aspect=fixed;strokeColor=#000000;fillColor=#FFFFFF;shadow=1;" vertex="1" parent="1">
          <mxGeometry x="410" y="253" width="60" height="60" as="geometry" />
        </mxCell>
        <mxCell id="aSolj1gr-32Z-omolXvE-20" style="edgeStyle=orthogonalEdgeStyle;rounded=0;orthogonalLoop=1;jettySize=auto;html=1;" edge="1" parent="1" source="aSolj1gr-32Z-omolXvE-7" target="aSolj1gr-32Z-omolXvE-21">
          <mxGeometry relative="1" as="geometry">
            <mxPoint x="270" y="193" as="targetPoint" />
          </mxGeometry>
        </mxCell>
        <mxCell id="aSolj1gr-32Z-omolXvE-7" value="" style="ellipse;whiteSpace=wrap;html=1;aspect=fixed;strokeColor=#000000;fillColor=#FFFFFF;shadow=1;" vertex="1" parent="1">
          <mxGeometry x="240" y="253" width="60" height="60" as="geometry" />
        </mxCell>
        <mxCell id="aSolj1gr-32Z-omolXvE-8" value="Produce" style="text;html=1;align=center;verticalAlign=middle;resizable=0;points=[];autosize=1;strokeColor=none;fillColor=none;" vertex="1" parent="1">
          <mxGeometry x="345" y="358" width="70" height="30" as="geometry" />
        </mxCell>
        <mxCell id="aSolj1gr-32Z-omolXvE-12" value="1" style="edgeStyle=orthogonalEdgeStyle;rounded=0;orthogonalLoop=1;jettySize=auto;html=1;" edge="1" parent="1" source="aSolj1gr-32Z-omolXvE-10" target="aSolj1gr-32Z-omolXvE-11">
          <mxGeometry x="-0.1111" y="10" relative="1" as="geometry">
            <mxPoint as="offset" />
          </mxGeometry>
        </mxCell>
        <mxCell id="aSolj1gr-32Z-omolXvE-10" value="" style="ellipse;whiteSpace=wrap;html=1;aspect=fixed;strokeColor=#000000;fillColor=#FFFFFF;shadow=1;" vertex="1" parent="1">
          <mxGeometry x="410" y="93" width="60" height="60" as="geometry" />
        </mxCell>
        <mxCell id="aSolj1gr-32Z-omolXvE-13" value="" style="edgeStyle=orthogonalEdgeStyle;rounded=0;orthogonalLoop=1;jettySize=auto;html=1;" edge="1" parent="1" source="aSolj1gr-32Z-omolXvE-11" target="aSolj1gr-32Z-omolXvE-4">
          <mxGeometry relative="1" as="geometry" />
        </mxCell>
        <mxCell id="aSolj1gr-32Z-omolXvE-11" value="" style="html=1;points=[];perimeter=orthogonalPerimeter;fillColor=#000000;rotation=90;shadow=1;" vertex="1" parent="1">
          <mxGeometry x="435" y="173" width="10" height="60" as="geometry" />
        </mxCell>
        <mxCell id="aSolj1gr-32Z-omolXvE-39" style="edgeStyle=orthogonalEdgeStyle;rounded=0;orthogonalLoop=1;jettySize=auto;html=1;entryX=-0.058;entryY=0.76;entryDx=0;entryDy=0;entryPerimeter=0;" edge="1" parent="1" source="aSolj1gr-32Z-omolXvE-14" target="aSolj1gr-32Z-omolXvE-38">
          <mxGeometry relative="1" as="geometry" />
        </mxCell>
        <mxCell id="aSolj1gr-32Z-omolXvE-52" value="1" style="edgeLabel;html=1;align=center;verticalAlign=middle;resizable=0;points=[];" vertex="1" connectable="0" parent="aSolj1gr-32Z-omolXvE-39">
          <mxGeometry x="-0.6603" y="-3" relative="1" as="geometry">
            <mxPoint y="7" as="offset" />
          </mxGeometry>
        </mxCell>
        <mxCell id="aSolj1gr-32Z-omolXvE-14" value="" style="ellipse;whiteSpace=wrap;html=1;aspect=fixed;strokeColor=#000000;fillColor=#FFFFFF;shadow=1;" vertex="1" parent="1">
          <mxGeometry x="670" y="93" width="60" height="60" as="geometry" />
        </mxCell>
        <mxCell id="aSolj1gr-32Z-omolXvE-16" value="Unbounded&lt;br&gt;Buffer&amp;lt;File&amp;gt;" style="text;html=1;align=center;verticalAlign=middle;resizable=0;points=[];autosize=1;strokeColor=none;fillColor=none;" vertex="1" parent="1">
          <mxGeometry x="590" y="103" width="90" height="40" as="geometry" />
        </mxCell>
        <mxCell id="aSolj1gr-32Z-omolXvE-17" value="Unbounded&lt;br&gt;Buffer&amp;lt;Folder&amp;gt;" style="text;html=1;align=center;verticalAlign=middle;resizable=0;points=[];autosize=1;strokeColor=none;fillColor=none;" vertex="1" parent="1">
          <mxGeometry x="465" y="103" width="100" height="40" as="geometry" />
        </mxCell>
        <mxCell id="aSolj1gr-32Z-omolXvE-18" value="Files" style="text;html=1;align=center;verticalAlign=middle;resizable=0;points=[];autosize=1;strokeColor=none;fillColor=none;" vertex="1" parent="1">
          <mxGeometry x="630" y="268" width="50" height="30" as="geometry" />
        </mxCell>
        <mxCell id="aSolj1gr-32Z-omolXvE-19" value="Folders" style="text;html=1;align=center;verticalAlign=middle;resizable=0;points=[];autosize=1;strokeColor=none;fillColor=none;" vertex="1" parent="1">
          <mxGeometry x="180" y="268" width="60" height="30" as="geometry" />
        </mxCell>
        <mxCell id="aSolj1gr-32Z-omolXvE-22" style="edgeStyle=orthogonalEdgeStyle;rounded=0;orthogonalLoop=1;jettySize=auto;html=1;entryX=0;entryY=0.5;entryDx=0;entryDy=0;" edge="1" parent="1" source="aSolj1gr-32Z-omolXvE-21" target="aSolj1gr-32Z-omolXvE-10">
          <mxGeometry relative="1" as="geometry">
            <Array as="points">
              <mxPoint x="270" y="123" />
            </Array>
          </mxGeometry>
        </mxCell>
        <mxCell id="aSolj1gr-32Z-omolXvE-21" value="" style="html=1;points=[];perimeter=orthogonalPerimeter;fillColor=#000000;rotation=90;shadow=1;" vertex="1" parent="1">
          <mxGeometry x="265" y="173" width="10" height="60" as="geometry" />
        </mxCell>
        <mxCell id="aSolj1gr-32Z-omolXvE-23" value="Put" style="text;html=1;align=center;verticalAlign=middle;resizable=0;points=[];autosize=1;strokeColor=none;fillColor=none;" vertex="1" parent="1">
          <mxGeometry x="290" y="188" width="40" height="30" as="geometry" />
        </mxCell>
        <mxCell id="aSolj1gr-32Z-omolXvE-24" value="" style="ellipse;whiteSpace=wrap;html=1;aspect=fixed;strokeColor=#000000;fillColor=#000000;" vertex="1" parent="1">
          <mxGeometry x="425" y="113" width="10" height="10" as="geometry" />
        </mxCell>
        <mxCell id="aSolj1gr-32Z-omolXvE-25" value="" style="ellipse;whiteSpace=wrap;html=1;aspect=fixed;strokeColor=#000000;fillColor=#000000;" vertex="1" parent="1">
          <mxGeometry x="445" y="113" width="10" height="10" as="geometry" />
        </mxCell>
        <mxCell id="aSolj1gr-32Z-omolXvE-26" value="" style="ellipse;whiteSpace=wrap;html=1;aspect=fixed;strokeColor=#000000;fillColor=#000000;" vertex="1" parent="1">
          <mxGeometry x="435" y="133" width="10" height="10" as="geometry" />
        </mxCell>
        <mxCell id="aSolj1gr-32Z-omolXvE-31" value="" style="edgeStyle=orthogonalEdgeStyle;rounded=0;orthogonalLoop=1;jettySize=auto;html=1;" edge="1" parent="1" source="aSolj1gr-32Z-omolXvE-27" target="aSolj1gr-32Z-omolXvE-30">
          <mxGeometry relative="1" as="geometry" />
        </mxCell>
        <mxCell id="aSolj1gr-32Z-omolXvE-27" value="" style="ellipse;whiteSpace=wrap;html=1;aspect=fixed;strokeColor=#000000;fillColor=#FFFFFF;shadow=1;" vertex="1" parent="1">
          <mxGeometry x="670" y="253" width="60" height="60" as="geometry" />
        </mxCell>
        <mxCell id="aSolj1gr-32Z-omolXvE-29" value="visit Folder" style="text;html=1;align=center;verticalAlign=middle;resizable=0;points=[];autosize=1;strokeColor=none;fillColor=none;" vertex="1" parent="1">
          <mxGeometry x="465" y="268" width="80" height="30" as="geometry" />
        </mxCell>
        <mxCell id="aSolj1gr-32Z-omolXvE-32" value="" style="edgeStyle=orthogonalEdgeStyle;rounded=0;orthogonalLoop=1;jettySize=auto;html=1;" edge="1" parent="1" source="aSolj1gr-32Z-omolXvE-30" target="aSolj1gr-32Z-omolXvE-14">
          <mxGeometry relative="1" as="geometry" />
        </mxCell>
        <mxCell id="aSolj1gr-32Z-omolXvE-30" value="" style="html=1;points=[];perimeter=orthogonalPerimeter;fillColor=#000000;rotation=90;shadow=1;" vertex="1" parent="1">
          <mxGeometry x="695" y="173" width="10" height="60" as="geometry" />
        </mxCell>
        <mxCell id="aSolj1gr-32Z-omolXvE-33" value="Put" style="text;html=1;align=center;verticalAlign=middle;resizable=0;points=[];autosize=1;strokeColor=none;fillColor=none;" vertex="1" parent="1">
          <mxGeometry x="635" y="188" width="40" height="30" as="geometry" />
        </mxCell>
        <mxCell id="aSolj1gr-32Z-omolXvE-40" style="edgeStyle=orthogonalEdgeStyle;rounded=0;orthogonalLoop=1;jettySize=auto;html=1;entryX=-0.086;entryY=0.254;entryDx=0;entryDy=0;entryPerimeter=0;" edge="1" parent="1" source="aSolj1gr-32Z-omolXvE-37" target="aSolj1gr-32Z-omolXvE-38">
          <mxGeometry relative="1" as="geometry">
            <mxPoint x="840" y="213" as="targetPoint" />
          </mxGeometry>
        </mxCell>
        <mxCell id="aSolj1gr-32Z-omolXvE-51" value="1" style="edgeLabel;html=1;align=center;verticalAlign=middle;resizable=0;points=[];" vertex="1" connectable="0" parent="aSolj1gr-32Z-omolXvE-40">
          <mxGeometry x="-0.5777" relative="1" as="geometry">
            <mxPoint x="-9" y="-10" as="offset" />
          </mxGeometry>
        </mxCell>
        <mxCell id="aSolj1gr-32Z-omolXvE-37" value="" style="ellipse;whiteSpace=wrap;html=1;aspect=fixed;strokeColor=#000000;fillColor=#FFFFFF;shadow=1;" vertex="1" parent="1">
          <mxGeometry x="920" y="123" width="60" height="60" as="geometry" />
        </mxCell>
        <mxCell id="aSolj1gr-32Z-omolXvE-45" style="edgeStyle=orthogonalEdgeStyle;rounded=0;orthogonalLoop=1;jettySize=auto;html=1;" edge="1" parent="1" source="aSolj1gr-32Z-omolXvE-38">
          <mxGeometry relative="1" as="geometry">
            <mxPoint x="825" y="303" as="targetPoint" />
          </mxGeometry>
        </mxCell>
        <mxCell id="aSolj1gr-32Z-omolXvE-38" value="" style="html=1;points=[];perimeter=orthogonalPerimeter;fillColor=#000000;rotation=90;shadow=1;" vertex="1" parent="1">
          <mxGeometry x="820" y="193" width="10" height="60" as="geometry" />
        </mxCell>
        <mxCell id="aSolj1gr-32Z-omolXvE-41" value="" style="ellipse;whiteSpace=wrap;html=1;aspect=fixed;strokeColor=#000000;fillColor=#000000;" vertex="1" parent="1">
          <mxGeometry x="935" y="138" width="10" height="10" as="geometry" />
        </mxCell>
        <mxCell id="aSolj1gr-32Z-omolXvE-42" value="" style="ellipse;whiteSpace=wrap;html=1;aspect=fixed;strokeColor=#000000;fillColor=#000000;" vertex="1" parent="1">
          <mxGeometry x="955" y="138" width="10" height="10" as="geometry" />
        </mxCell>
        <mxCell id="aSolj1gr-32Z-omolXvE-43" value="" style="ellipse;whiteSpace=wrap;html=1;aspect=fixed;strokeColor=#000000;fillColor=#000000;" vertex="1" parent="1">
          <mxGeometry x="945" y="158" width="10" height="10" as="geometry" />
        </mxCell>
        <mxCell id="aSolj1gr-32Z-omolXvE-44" value="Consumers&lt;br&gt;" style="text;html=1;align=center;verticalAlign=middle;resizable=0;points=[];autosize=1;strokeColor=none;fillColor=none;" vertex="1" parent="1">
          <mxGeometry x="910" y="93" width="80" height="30" as="geometry" />
        </mxCell>
        <mxCell id="aSolj1gr-32Z-omolXvE-47" style="edgeStyle=orthogonalEdgeStyle;rounded=0;orthogonalLoop=1;jettySize=auto;html=1;" edge="1" parent="1" source="aSolj1gr-32Z-omolXvE-46" target="aSolj1gr-32Z-omolXvE-48">
          <mxGeometry relative="1" as="geometry">
            <mxPoint x="950" y="333" as="targetPoint" />
          </mxGeometry>
        </mxCell>
        <mxCell id="aSolj1gr-32Z-omolXvE-46" value="" style="ellipse;whiteSpace=wrap;html=1;aspect=fixed;strokeColor=#000000;fillColor=#FFFFFF;shadow=1;" vertex="1" parent="1">
          <mxGeometry x="795" y="303" width="60" height="60" as="geometry" />
        </mxCell>
        <mxCell id="aSolj1gr-32Z-omolXvE-49" style="edgeStyle=orthogonalEdgeStyle;rounded=0;orthogonalLoop=1;jettySize=auto;html=1;entryX=0.5;entryY=1;entryDx=0;entryDy=0;" edge="1" parent="1" source="aSolj1gr-32Z-omolXvE-48" target="aSolj1gr-32Z-omolXvE-37">
          <mxGeometry relative="1" as="geometry" />
        </mxCell>
        <mxCell id="aSolj1gr-32Z-omolXvE-48" value="" style="html=1;points=[];perimeter=orthogonalPerimeter;fillColor=#000000;rotation=90;shadow=1;" vertex="1" parent="1">
          <mxGeometry x="945" y="263" width="10" height="60" as="geometry" />
        </mxCell>
        <mxCell id="aSolj1gr-32Z-omolXvE-50" value="read File" style="text;html=1;align=center;verticalAlign=middle;resizable=0;points=[];autosize=1;strokeColor=none;fillColor=none;" vertex="1" parent="1">
          <mxGeometry x="790" y="358" width="70" height="30" as="geometry" />
        </mxCell>
        <mxCell id="aSolj1gr-32Z-omolXvE-53" value="&lt;font style=&quot;font-size: 36px;&quot;&gt;&lt;b&gt;Producer Consumer&lt;br&gt;&lt;/b&gt;&lt;/font&gt;" style="text;html=1;strokeColor=none;fillColor=none;align=center;verticalAlign=middle;whiteSpace=wrap;rounded=0;" vertex="1" parent="1">
          <mxGeometry x="260" y="10" width="650" height="30" as="geometry" />
        </mxCell>
        <mxCell id="aSolj1gr-32Z-omolXvE-64" value="1" style="edgeStyle=orthogonalEdgeStyle;rounded=0;orthogonalLoop=1;jettySize=auto;html=1;entryX=-0.046;entryY=0.833;entryDx=0;entryDy=0;entryPerimeter=0;" edge="1" parent="1" source="aSolj1gr-32Z-omolXvE-65" target="aSolj1gr-32Z-omolXvE-67">
          <mxGeometry x="-0.1111" y="10" relative="1" as="geometry">
            <mxPoint as="offset" />
            <mxPoint x="1716" y="235.49999999999997" as="targetPoint" />
            <Array as="points">
              <mxPoint x="1676" y="205.49999999999997" />
              <mxPoint x="1716" y="205.49999999999997" />
            </Array>
          </mxGeometry>
        </mxCell>
        <mxCell id="aSolj1gr-32Z-omolXvE-65" value="" style="ellipse;whiteSpace=wrap;html=1;aspect=fixed;strokeColor=#000000;fillColor=#FFFFFF;shadow=1;" vertex="1" parent="1">
          <mxGeometry x="1646" y="125.5" width="60" height="60" as="geometry" />
        </mxCell>
        <mxCell id="aSolj1gr-32Z-omolXvE-115" style="edgeStyle=orthogonalEdgeStyle;rounded=0;orthogonalLoop=1;jettySize=auto;html=1;fontSize=11;" edge="1" parent="1" source="aSolj1gr-32Z-omolXvE-67" target="aSolj1gr-32Z-omolXvE-116">
          <mxGeometry relative="1" as="geometry">
            <mxPoint x="1736" y="325.5" as="targetPoint" />
          </mxGeometry>
        </mxCell>
        <mxCell id="aSolj1gr-32Z-omolXvE-67" value="" style="html=1;points=[];perimeter=orthogonalPerimeter;fillColor=#000000;rotation=90;shadow=1;" vertex="1" parent="1">
          <mxGeometry x="1731" y="215.49999999999997" width="10" height="60" as="geometry" />
        </mxCell>
        <mxCell id="aSolj1gr-32Z-omolXvE-72" value="Unbounded&lt;br&gt;Buffer&amp;lt;Task&amp;gt;" style="text;html=1;align=center;verticalAlign=middle;resizable=0;points=[];autosize=1;strokeColor=none;fillColor=none;" vertex="1" parent="1">
          <mxGeometry x="1631" y="85.5" width="90" height="40" as="geometry" />
        </mxCell>
        <mxCell id="aSolj1gr-32Z-omolXvE-78" value="" style="ellipse;whiteSpace=wrap;html=1;aspect=fixed;strokeColor=#000000;fillColor=#000000;" vertex="1" parent="1">
          <mxGeometry x="1661" y="145.5" width="10" height="10" as="geometry" />
        </mxCell>
        <mxCell id="aSolj1gr-32Z-omolXvE-79" value="" style="ellipse;whiteSpace=wrap;html=1;aspect=fixed;strokeColor=#000000;fillColor=#000000;" vertex="1" parent="1">
          <mxGeometry x="1681" y="145.5" width="10" height="10" as="geometry" />
        </mxCell>
        <mxCell id="aSolj1gr-32Z-omolXvE-80" value="" style="ellipse;whiteSpace=wrap;html=1;aspect=fixed;strokeColor=#000000;fillColor=#000000;" vertex="1" parent="1">
          <mxGeometry x="1671" y="165.5" width="10" height="10" as="geometry" />
        </mxCell>
        <mxCell id="aSolj1gr-32Z-omolXvE-108" style="edgeStyle=orthogonalEdgeStyle;rounded=0;orthogonalLoop=1;jettySize=auto;html=1;entryX=-0.046;entryY=0.167;entryDx=0;entryDy=0;entryPerimeter=0;fontSize=36;exitX=0.5;exitY=1;exitDx=0;exitDy=0;" edge="1" parent="1" source="aSolj1gr-32Z-omolXvE-102" target="aSolj1gr-32Z-omolXvE-67">
          <mxGeometry relative="1" as="geometry">
            <Array as="points">
              <mxPoint x="1794" y="205.49999999999997" />
              <mxPoint x="1756" y="205.49999999999997" />
            </Array>
          </mxGeometry>
        </mxCell>
        <mxCell id="aSolj1gr-32Z-omolXvE-113" value="1" style="edgeLabel;html=1;align=center;verticalAlign=middle;resizable=0;points=[];fontSize=11;" vertex="1" connectable="0" parent="aSolj1gr-32Z-omolXvE-108">
          <mxGeometry x="-0.0874" y="-1" relative="1" as="geometry">
            <mxPoint x="-5" y="-9" as="offset" />
          </mxGeometry>
        </mxCell>
        <mxCell id="aSolj1gr-32Z-omolXvE-102" value="" style="ellipse;whiteSpace=wrap;html=1;aspect=fixed;strokeColor=#000000;fillColor=#FFFFFF;shadow=1;" vertex="1" parent="1">
          <mxGeometry x="1764" y="128.5" width="60" height="60" as="geometry" />
        </mxCell>
        <mxCell id="aSolj1gr-32Z-omolXvE-103" value="" style="ellipse;whiteSpace=wrap;html=1;aspect=fixed;strokeColor=#000000;fillColor=#000000;" vertex="1" parent="1">
          <mxGeometry x="1779" y="143.5" width="10" height="10" as="geometry" />
        </mxCell>
        <mxCell id="aSolj1gr-32Z-omolXvE-104" value="" style="ellipse;whiteSpace=wrap;html=1;aspect=fixed;strokeColor=#000000;fillColor=#000000;" vertex="1" parent="1">
          <mxGeometry x="1799" y="143.5" width="10" height="10" as="geometry" />
        </mxCell>
        <mxCell id="aSolj1gr-32Z-omolXvE-105" value="" style="ellipse;whiteSpace=wrap;html=1;aspect=fixed;strokeColor=#000000;fillColor=#000000;" vertex="1" parent="1">
          <mxGeometry x="1789" y="163.5" width="10" height="10" as="geometry" />
        </mxCell>
        <mxCell id="aSolj1gr-32Z-omolXvE-118" style="edgeStyle=orthogonalEdgeStyle;rounded=0;orthogonalLoop=1;jettySize=auto;html=1;fontSize=11;" edge="1" parent="1" source="aSolj1gr-32Z-omolXvE-116" target="aSolj1gr-32Z-omolXvE-120">
          <mxGeometry relative="1" as="geometry">
            <mxPoint x="1736" y="415.5000000000001" as="targetPoint" />
          </mxGeometry>
        </mxCell>
        <mxCell id="aSolj1gr-32Z-omolXvE-116" value="" style="ellipse;whiteSpace=wrap;html=1;aspect=fixed;strokeColor=#000000;fillColor=#FFFFFF;shadow=1;" vertex="1" parent="1">
          <mxGeometry x="1706" y="278.5" width="60" height="60" as="geometry" />
        </mxCell>
        <mxCell id="aSolj1gr-32Z-omolXvE-117" value="Workers" style="text;html=1;align=center;verticalAlign=middle;resizable=0;points=[];autosize=1;strokeColor=none;fillColor=none;" vertex="1" parent="1">
          <mxGeometry x="1759" y="95.5" width="70" height="30" as="geometry" />
        </mxCell>
        <mxCell id="aSolj1gr-32Z-omolXvE-119" value="Kind of Task" style="text;html=1;align=center;verticalAlign=middle;resizable=0;points=[];autosize=1;strokeColor=none;fillColor=none;" vertex="1" parent="1">
          <mxGeometry x="1756" y="293.5" width="90" height="30" as="geometry" />
        </mxCell>
        <mxCell id="aSolj1gr-32Z-omolXvE-126" style="edgeStyle=orthogonalEdgeStyle;rounded=0;orthogonalLoop=1;jettySize=auto;html=1;entryX=0;entryY=0.5;entryDx=0;entryDy=0;fontSize=11;" edge="1" parent="1" source="aSolj1gr-32Z-omolXvE-120" target="aSolj1gr-32Z-omolXvE-123">
          <mxGeometry relative="1" as="geometry">
            <Array as="points">
              <mxPoint x="1761" y="370.5" />
              <mxPoint x="1761" y="400.5" />
              <mxPoint x="1801" y="400.5" />
            </Array>
          </mxGeometry>
        </mxCell>
        <mxCell id="aSolj1gr-32Z-omolXvE-127" style="edgeStyle=orthogonalEdgeStyle;rounded=0;orthogonalLoop=1;jettySize=auto;html=1;fontSize=11;" edge="1" parent="1" target="aSolj1gr-32Z-omolXvE-122">
          <mxGeometry relative="1" as="geometry">
            <mxPoint x="1707" y="370.5" as="sourcePoint" />
            <mxPoint x="1671" y="385.5" as="targetPoint" />
            <Array as="points">
              <mxPoint x="1712" y="370.5" />
              <mxPoint x="1712" y="403.5" />
              <mxPoint x="1672" y="403.5" />
            </Array>
          </mxGeometry>
        </mxCell>
        <mxCell id="aSolj1gr-32Z-omolXvE-120" value="" style="html=1;points=[];perimeter=orthogonalPerimeter;fillColor=#000000;rotation=90;shadow=1;" vertex="1" parent="1">
          <mxGeometry x="1731" y="340.5" width="10" height="60" as="geometry" />
        </mxCell>
        <mxCell id="aSolj1gr-32Z-omolXvE-146" style="edgeStyle=orthogonalEdgeStyle;rounded=0;orthogonalLoop=1;jettySize=auto;html=1;fontSize=11;" edge="1" parent="1" source="aSolj1gr-32Z-omolXvE-122" target="aSolj1gr-32Z-omolXvE-145">
          <mxGeometry relative="1" as="geometry" />
        </mxCell>
        <mxCell id="aSolj1gr-32Z-omolXvE-122" value="" style="ellipse;whiteSpace=wrap;html=1;aspect=fixed;strokeColor=#000000;fillColor=#FFFFFF;shadow=1;" vertex="1" parent="1">
          <mxGeometry x="1642" y="430.5" width="60" height="60" as="geometry" />
        </mxCell>
        <mxCell id="aSolj1gr-32Z-omolXvE-132" style="edgeStyle=orthogonalEdgeStyle;rounded=0;orthogonalLoop=1;jettySize=auto;html=1;fontSize=11;" edge="1" parent="1" source="aSolj1gr-32Z-omolXvE-123" target="aSolj1gr-32Z-omolXvE-133">
          <mxGeometry relative="1" as="geometry">
            <mxPoint x="1931" y="460.5000000000001" as="targetPoint" />
          </mxGeometry>
        </mxCell>
        <mxCell id="aSolj1gr-32Z-omolXvE-123" value="" style="ellipse;whiteSpace=wrap;html=1;aspect=fixed;strokeColor=#000000;fillColor=#FFFFFF;direction=south;shadow=1;" vertex="1" parent="1">
          <mxGeometry x="1771" y="430.5" width="60" height="60" as="geometry" />
        </mxCell>
        <mxCell id="aSolj1gr-32Z-omolXvE-129" value="XOR" style="text;html=1;align=center;verticalAlign=middle;resizable=0;points=[];autosize=1;strokeColor=none;fillColor=none;fontSize=11;" vertex="1" parent="1">
          <mxGeometry x="1711" y="384.5" width="50" height="30" as="geometry" />
        </mxCell>
        <mxCell id="aSolj1gr-32Z-omolXvE-130" value="File" style="text;html=1;align=center;verticalAlign=middle;resizable=0;points=[];autosize=1;strokeColor=none;fillColor=none;" vertex="1" parent="1">
          <mxGeometry x="1781" y="490.5" width="40" height="30" as="geometry" />
        </mxCell>
        <mxCell id="aSolj1gr-32Z-omolXvE-131" value="Folder" style="text;html=1;align=center;verticalAlign=middle;resizable=0;points=[];autosize=1;strokeColor=none;fillColor=none;" vertex="1" parent="1">
          <mxGeometry x="1642" y="490.5" width="60" height="30" as="geometry" />
        </mxCell>
        <mxCell id="aSolj1gr-32Z-omolXvE-134" style="edgeStyle=orthogonalEdgeStyle;rounded=0;orthogonalLoop=1;jettySize=auto;html=1;fontSize=11;" edge="1" parent="1" source="aSolj1gr-32Z-omolXvE-133" target="aSolj1gr-32Z-omolXvE-135">
          <mxGeometry relative="1" as="geometry">
            <mxPoint x="1926" y="325.5" as="targetPoint" />
          </mxGeometry>
        </mxCell>
        <mxCell id="aSolj1gr-32Z-omolXvE-133" value="" style="html=1;points=[];perimeter=orthogonalPerimeter;fillColor=#000000;rotation=90;shadow=1;" vertex="1" parent="1">
          <mxGeometry x="1921" y="384.5" width="10" height="60" as="geometry" />
        </mxCell>
        <mxCell id="aSolj1gr-32Z-omolXvE-138" style="edgeStyle=orthogonalEdgeStyle;rounded=0;orthogonalLoop=1;jettySize=auto;html=1;fontSize=11;" edge="1" parent="1" source="aSolj1gr-32Z-omolXvE-135" target="aSolj1gr-32Z-omolXvE-139">
          <mxGeometry relative="1" as="geometry">
            <mxPoint x="1926" y="195.49999999999997" as="targetPoint" />
          </mxGeometry>
        </mxCell>
        <mxCell id="aSolj1gr-32Z-omolXvE-135" value="" style="ellipse;whiteSpace=wrap;html=1;aspect=fixed;strokeColor=#000000;fillColor=#FFFFFF;shadow=1;" vertex="1" parent="1">
          <mxGeometry x="1896" y="258.5" width="60" height="60" as="geometry" />
        </mxCell>
        <mxCell id="aSolj1gr-32Z-omolXvE-136" value="Read file" style="text;html=1;align=center;verticalAlign=middle;resizable=0;points=[];autosize=1;strokeColor=none;fillColor=none;" vertex="1" parent="1">
          <mxGeometry x="1956" y="399.5" width="70" height="30" as="geometry" />
        </mxCell>
        <mxCell id="aSolj1gr-32Z-omolXvE-137" value="Result" style="text;html=1;align=center;verticalAlign=middle;resizable=0;points=[];autosize=1;strokeColor=none;fillColor=none;" vertex="1" parent="1">
          <mxGeometry x="1951" y="273.5" width="60" height="30" as="geometry" />
        </mxCell>
        <mxCell id="aSolj1gr-32Z-omolXvE-157" style="edgeStyle=orthogonalEdgeStyle;rounded=0;orthogonalLoop=1;jettySize=auto;html=1;entryX=0.928;entryY=0.764;entryDx=0;entryDy=0;entryPerimeter=0;fontSize=11;exitX=-0.04;exitY=0.52;exitDx=0;exitDy=0;exitPerimeter=0;" edge="1" parent="1" source="aSolj1gr-32Z-omolXvE-139" target="aSolj1gr-32Z-omolXvE-102">
          <mxGeometry relative="1" as="geometry">
            <Array as="points">
              <mxPoint x="1925" y="174.49999999999997" />
              <mxPoint x="1831" y="174.49999999999997" />
            </Array>
          </mxGeometry>
        </mxCell>
        <mxCell id="aSolj1gr-32Z-omolXvE-139" value="" style="html=1;points=[];perimeter=orthogonalPerimeter;fillColor=#000000;rotation=90;shadow=1;" vertex="1" parent="1">
          <mxGeometry x="1921" y="163.5" width="10" height="60" as="geometry" />
        </mxCell>
        <mxCell id="aSolj1gr-32Z-omolXvE-142" value="consume" style="text;html=1;align=center;verticalAlign=middle;resizable=0;points=[];autosize=1;strokeColor=none;fillColor=none;" vertex="1" parent="1">
          <mxGeometry x="1956" y="180.49999999999997" width="70" height="30" as="geometry" />
        </mxCell>
        <mxCell id="aSolj1gr-32Z-omolXvE-150" style="edgeStyle=orthogonalEdgeStyle;rounded=0;orthogonalLoop=1;jettySize=auto;html=1;fontSize=11;" edge="1" parent="1" source="aSolj1gr-32Z-omolXvE-145" target="aSolj1gr-32Z-omolXvE-149">
          <mxGeometry relative="1" as="geometry" />
        </mxCell>
        <mxCell id="aSolj1gr-32Z-omolXvE-145" value="" style="html=1;points=[];perimeter=orthogonalPerimeter;fillColor=#000000;rotation=90;shadow=1;" vertex="1" parent="1">
          <mxGeometry x="1581" y="384.5" width="10" height="60" as="geometry" />
        </mxCell>
        <mxCell id="aSolj1gr-32Z-omolXvE-147" value="visit Folder" style="text;html=1;align=center;verticalAlign=middle;resizable=0;points=[];autosize=1;strokeColor=none;fillColor=none;" vertex="1" parent="1">
          <mxGeometry x="1481" y="399.5" width="80" height="30" as="geometry" />
        </mxCell>
        <mxCell id="aSolj1gr-32Z-omolXvE-152" style="edgeStyle=orthogonalEdgeStyle;rounded=0;orthogonalLoop=1;jettySize=auto;html=1;fontSize=11;" edge="1" parent="1" source="aSolj1gr-32Z-omolXvE-149">
          <mxGeometry relative="1" as="geometry">
            <mxPoint x="1586" y="215.49999999999997" as="targetPoint" />
          </mxGeometry>
        </mxCell>
        <mxCell id="aSolj1gr-32Z-omolXvE-149" value="" style="ellipse;whiteSpace=wrap;html=1;aspect=fixed;strokeColor=#000000;fillColor=#FFFFFF;shadow=1;" vertex="1" parent="1">
          <mxGeometry x="1556" y="258.5" width="60" height="60" as="geometry" />
        </mxCell>
        <mxCell id="aSolj1gr-32Z-omolXvE-151" value="Results" style="text;html=1;align=center;verticalAlign=middle;resizable=0;points=[];autosize=1;strokeColor=none;fillColor=none;" vertex="1" parent="1">
          <mxGeometry x="1496" y="273.5" width="60" height="30" as="geometry" />
        </mxCell>
        <mxCell id="aSolj1gr-32Z-omolXvE-154" style="edgeStyle=orthogonalEdgeStyle;rounded=0;orthogonalLoop=1;jettySize=auto;html=1;entryX=0;entryY=0.5;entryDx=0;entryDy=0;fontSize=11;" edge="1" parent="1" source="aSolj1gr-32Z-omolXvE-153" target="aSolj1gr-32Z-omolXvE-65">
          <mxGeometry relative="1" as="geometry">
            <Array as="points">
              <mxPoint x="1601" y="155.5" />
            </Array>
          </mxGeometry>
        </mxCell>
        <mxCell id="aSolj1gr-32Z-omolXvE-156" style="edgeStyle=orthogonalEdgeStyle;rounded=0;orthogonalLoop=1;jettySize=auto;html=1;entryX=0.969;entryY=0.305;entryDx=0;entryDy=0;fontSize=11;entryPerimeter=0;" edge="1" parent="1" source="aSolj1gr-32Z-omolXvE-153" target="aSolj1gr-32Z-omolXvE-102">
          <mxGeometry relative="1" as="geometry">
            <Array as="points">
              <mxPoint x="1571" y="205.49999999999997" />
              <mxPoint x="1571" y="65.5" />
              <mxPoint x="1851" y="65.5" />
              <mxPoint x="1851" y="146.5" />
            </Array>
          </mxGeometry>
        </mxCell>
        <mxCell id="aSolj1gr-32Z-omolXvE-153" value="" style="html=1;points=[];perimeter=orthogonalPerimeter;fillColor=#000000;rotation=90;shadow=1;" vertex="1" parent="1">
          <mxGeometry x="1581" y="175.49999999999997" width="10" height="60" as="geometry" />
        </mxCell>
        <mxCell id="aSolj1gr-32Z-omolXvE-155" value="produce&lt;br&gt;new Tasks" style="text;html=1;align=center;verticalAlign=middle;resizable=0;points=[];autosize=1;strokeColor=none;fillColor=none;" vertex="1" parent="1">
          <mxGeometry x="1481" y="185.49999999999997" width="80" height="40" as="geometry" />
        </mxCell>
        <mxCell id="aSolj1gr-32Z-omolXvE-158" value="&lt;font style=&quot;font-size: 36px;&quot;&gt;&lt;b&gt;Recursive Worker&lt;br&gt;&lt;/b&gt;&lt;/font&gt;" style="text;html=1;strokeColor=none;fillColor=none;align=center;verticalAlign=middle;whiteSpace=wrap;rounded=0;" vertex="1" parent="1">
          <mxGeometry x="1445" y="10" width="650" height="30" as="geometry" />
        </mxCell>
      </root>
    </mxGraphModel>
  </diagram>
</mxfile>
